<mxfile host="app.diagrams.net" modified="2024-02-20T06:29:03.172Z" agent="Mozilla/5.0 (Windows NT 10.0; Win64; x64) AppleWebKit/537.36 (KHTML, like Gecko) Chrome/121.0.0.0 Safari/537.36 Edg/121.0.0.0" version="23.1.5" etag="1LRMY2Vq1OZCL7JqeAUX" type="github">
  <diagram name="ページ1" id="ZMm3QGpFgF36NzsfYQuy">
    <mxGraphModel>
      <root>
        <mxCell id="0" />
        <mxCell id="1" parent="0" />
      </root>
    </mxGraphModel>
  </diagram>
</mxfile>
